<?xml version="1.0" encoding="UTF-8" standalone="no" ?>
<!DOCTYPE svg PUBLIC "-//W3C//DTD SVG 1.1//EN" "http://www.w3.org/Graphics/SVG/1.1/DTD/svg11.dtd">
<svg xmlns="http://www.w3.org/2000/svg" xmlns:xlink="http://www.w3.org/1999/xlink" version="1.1" width="1080" height="300" viewBox="0 0 1080 300" xml:space="preserve" >
<desc>Created with Fabric.js 5.2.4</desc>
<defs>
</defs>
<g transform="matrix(Infinity NaN NaN Infinity 0 0)" id="26060972-d45b-46e8-9d76-c5a91b960427"  >
</g>
<g transform="matrix(1 0 0 1 540 150)" id="26495be2-8293-4949-b4f9-1030ba468484"  >
<rect style="stroke: none; stroke-width: 1; stroke-dasharray: none; stroke-linecap: butt; stroke-dashoffset: 0; stroke-linejoin: miter; stroke-miterlimit: 4; fill: rgb(255,255,255); fill-rule: nonzero; opacity: 1; visibility: hidden;" vector-effect="non-scaling-stroke"  x="-540" y="-150" rx="0" ry="0" width="1080" height="300" />
</g>
<g transform="matrix(1.59 0 0 1.59 540 150)"  >
<g style="" vector-effect="non-scaling-stroke"   >
		<g transform="matrix(1 0 0 1 101.6 4.85)"  >
<path style="stroke: none; stroke-width: 1; stroke-dasharray: none; stroke-linecap: butt; stroke-dashoffset: 0; stroke-linejoin: miter; stroke-miterlimit: 4; fill: rgb(36,41,46); fill-rule: nonzero; opacity: 1;" vector-effect="non-scaling-stroke"  transform=" translate(-422.85, -325.55)" d="M 389.1 360.9 L 388.90000000000003 360.9 C 389.00000000000006 360.9 389.00000000000006 361 389.1 361 L 389.20000000000005 361 L 389.1 360.9 z M 389.1 361 C 388.3 361 386.20000000000005 361.4 384 361.4 C 377.1 361.4 374.7 358.2 374.7 354 L 374.7 326.2 L 388.8 326.2 C 389.6 326.2 390.2 325.5 390.2 324.5 L 390.2 309.4 C 390.2 308.59999999999997 389.5 307.9 388.8 307.9 L 374.7 307.9 L 374.7 289.09999999999997 C 374.7 288.4 374.2 287.99999999999994 373.4 287.99999999999994 L 354.2 287.99999999999994 C 353.4 287.99999999999994 353 288.49999999999994 353 289.09999999999997 L 353 308.4 C 353 308.4 343.3 310.79999999999995 342.7 310.9 C 342 311.09999999999997 341.59999999999997 311.7 341.59999999999997 312.4 L 341.59999999999997 324.5 C 341.59999999999997 325.5 342.29999999999995 326.2 343.09999999999997 326.2 L 352.9 326.2 L 352.9 355.4 C 352.9 377.09999999999997 368 379.29999999999995 378.29999999999995 379.29999999999995 C 382.99999999999994 379.29999999999995 388.69999999999993 377.79999999999995 389.59999999999997 377.29999999999995 C 390.09999999999997 377.09999999999997 390.4 376.49999999999994 390.4 375.9 L 390.4 362.59999999999997 C 390.4 361.8 389.9 361.2 389.1 361 L 389.1 361 z M 599.7 341.5 C 599.7 325.4 593.2 323.3 586.4000000000001 324 C 581.1000000000001 324.3 576.8000000000001 327 576.8000000000001 327 L 576.8000000000001 358.3 C 576.8000000000001 358.3 581.1 361.3 587.6 361.5 C 596.7 361.7 599.7 358.4 599.7 341.5 L 599.7 341.5 z M 621.3 340.1 C 621.3 370.6 611.4 379.3 594.1999999999999 379.3 C 579.5999999999999 379.3 571.8 371.90000000000003 571.8 371.90000000000003 C 571.8 371.90000000000003 571.5 376.00000000000006 571 376.50000000000006 C 570.7 377.00000000000006 570.3 377.20000000000005 569.7 377.20000000000005 L 556.6 377.20000000000005 C 555.7 377.20000000000005 554.9 376.50000000000006 554.9 375.70000000000005 L 555.1 277.00000000000006 C 555.1 276.20000000000005 555.8000000000001 275.50000000000006 556.6 275.50000000000006 L 575.5 275.50000000000006 C 576.3 275.50000000000006 577 276.20000000000005 577 277.00000000000006 L 577 310.50000000000006 C 577 310.50000000000006 584.3 305.80000000000007 595 305.80000000000007 L 594.9 305.6000000000001 C 605.5 305.6 621.3 309.6 621.3 340.1 L 621.3 340.1 z M 543.8 308 L 525.0999999999999 308 C 524.0999999999999 308 523.5999999999999 308.7 523.5999999999999 309.7 L 523.5999999999999 358 C 523.5999999999999 358 518.6999999999999 361.4 511.9999999999999 361.4 C 505.39999999999986 361.4 503.39999999999986 358.4 503.39999999999986 351.7 L 503.39999999999986 309.5 C 503.39999999999986 308.7 502.6999999999999 308 501.89999999999986 308 L 482.89999999999986 308 C 482.09999999999985 308 481.39999999999986 308.7 481.39999999999986 309.5 L 481.39999999999986 355 C 481.39999999999986 374.5 492.29999999999984 379.4 507.29999999999984 379.4 C 519.6999999999998 379.4 529.6999999999998 372.59999999999997 529.6999999999998 372.59999999999997 C 529.6999999999998 372.59999999999997 530.1999999999998 376.09999999999997 530.3999999999999 376.59999999999997 C 530.5999999999999 376.99999999999994 531.1999999999998 377.4 531.7999999999998 377.4 L 543.6999999999998 377.4 C 544.6999999999998 377.4 545.1999999999998 376.7 545.1999999999998 375.9 L 545.3999999999999 309.5 C 545.5 308.7 544.7 308 543.8 308 L 543.8 308 z M 333.2 307.9 L 314.3 307.9 C 313.5 307.9 312.8 308.7 312.8 309.7 L 312.8 374.9 C 312.8 376.7 314 377.29999999999995 315.5 377.29999999999995 L 332.6 377.29999999999995 C 334.40000000000003 377.29999999999995 334.8 376.49999999999994 334.8 374.9 L 334.8 309.4 C 334.7 308.6 334 307.9 333.2 307.9 L 333.2 307.9 z M 323.8 277.8 C 317 277.8 311.5 283.2 311.5 290.1 C 311.5 296.90000000000003 316.9 302.40000000000003 323.8 302.40000000000003 C 330.5 302.40000000000003 335.90000000000003 297.00000000000006 335.90000000000003 290.1 C 335.9 283.3 330.5 277.8 323.8 277.8 L 323.8 277.8 z M 470.4 275.6 L 451.59999999999997 275.6 C 450.79999999999995 275.6 450.09999999999997 276.3 450.09999999999997 277.1 L 450.09999999999997 313.40000000000003 L 420.7 313.40000000000003 L 420.7 277.1 C 420.7 276.3 420 275.6 419.2 275.6 L 400.3 275.6 C 399.5 275.6 398.8 276.3 398.8 277.1 L 398.8 375.8 C 398.8 376.6 399.6 377.3 400.3 377.3 L 419.2 377.3 C 420 377.3 420.7 376.6 420.7 375.8 L 420.7 333.6 L 450.09999999999997 333.6 L 449.9 375.8 C 449.9 376.6 450.59999999999997 377.3 451.4 377.3 L 470.29999999999995 377.3 C 471.09999999999997 377.3 471.79999999999995 376.6 471.79999999999995 375.8 L 471.79999999999995 277.1 C 471.9 276.3 471.2 275.6 470.4 275.6 L 470.4 275.6 z M 302.7 319.3 L 302.7 370.3 C 302.7 370.6 302.59999999999997 371.3 302.2 371.40000000000003 C 302.2 371.40000000000003 291.09999999999997 379.3 272.8 379.3 C 250.70000000000002 379.3 224.4 372.40000000000003 224.4 326.7 C 224.4 281 247.3 271.59999999999997 269.7 271.7 C 289.09999999999997 271.7 296.9 276.09999999999997 298.09999999999997 276.9 C 298.4 277.4 298.59999999999997 277.7 298.59999999999997 278.09999999999997 L 295 294 C 295 294.8 294.2 295.8 293.2 295.5 C 290 294.5 285.2 292.6 273.9 292.6 C 260.79999999999995 292.6 246.79999999999998 296.3 246.79999999999998 325.8 C 246.79999999999998 355.2 260.09999999999997 358.7 269.7 358.7 C 277.9 358.7 280.8 357.7 280.8 357.7 L 280.8 337.3 L 267.7 337.3 C 266.7 337.3 266 336.6 266 335.8 L 266 319.40000000000003 C 266 318.6 266.7 317.90000000000003 267.7 317.90000000000003 L 301 317.90000000000003 C 302 317.8 302.7 318.5 302.7 319.3 L 302.7 319.3 z M 302.7 319.3" stroke-linecap="round" />
</g>
		<g transform="matrix(1 0 0 1 -223.85 0)"  >
<path style="stroke: none; stroke-width: 1; stroke-dasharray: none; stroke-linecap: butt; stroke-dashoffset: 0; stroke-linejoin: miter; stroke-miterlimit: 4; fill: rgb(36,41,46); fill-rule: evenodd; opacity: 1;" vector-effect="non-scaling-stroke"  transform=" translate(-97.4, -320.7)" d="M 97.4 246.4 C 55.300000000000004 246.4 21.200000000000003 280.5 21.200000000000003 322.6 C 21.200000000000003 356.3 43 384.8 73.30000000000001 394.90000000000003 C 77.10000000000001 395.50000000000006 78.60000000000001 393.3 78.60000000000001 391.3 C 78.60000000000001 389.5 78.50000000000001 383.5 78.50000000000001 377.1 C 59.40000000000001 380.6 54.40000000000001 372.40000000000003 52.90000000000001 368.20000000000005 C 52.000000000000014 366.00000000000006 48.30000000000001 359.20000000000005 45.100000000000016 357.40000000000003 C 42.40000000000001 356.00000000000006 38.600000000000016 352.40000000000003 45.000000000000014 352.3 C 51.000000000000014 352.2 55.30000000000001 357.8 56.70000000000002 360.1 C 63.600000000000016 371.6 74.50000000000001 368.40000000000003 78.90000000000002 366.40000000000003 C 79.60000000000002 361.50000000000006 81.60000000000002 358.1 83.80000000000003 356.20000000000005 C 66.90000000000003 354.30000000000007 49.10000000000002 347.70000000000005 49.10000000000002 318.6 C 49.10000000000002 310.3 52.10000000000002 303.40000000000003 56.90000000000002 298.1 C 56.10000000000002 296.20000000000005 53.50000000000002 288.40000000000003 57.70000000000002 277.90000000000003 C 57.70000000000002 277.90000000000003 64.10000000000002 275.90000000000003 78.70000000000002 285.70000000000005 C 84.80000000000001 284.00000000000006 91.30000000000001 283.1 97.70000000000002 283.1 C 104.20000000000002 283.1 110.60000000000002 284 116.70000000000002 285.70000000000005 C 131.3 275.80000000000007 137.60000000000002 277.90000000000003 137.60000000000002 277.90000000000003 C 141.8 288.40000000000003 139.10000000000002 296.20000000000005 138.40000000000003 298.1 C 143.30000000000004 303.40000000000003 146.20000000000005 310.20000000000005 146.20000000000005 318.6 C 146.20000000000005 347.8 128.40000000000003 354.3 111.40000000000005 356.20000000000005 C 114.20000000000005 358.6 116.60000000000005 363.1 116.60000000000005 370.30000000000007 C 116.60000000000005 380.50000000000006 116.50000000000006 388.70000000000005 116.50000000000006 391.20000000000005 C 116.50000000000006 393.20000000000005 117.90000000000006 395.6 121.70000000000006 394.80000000000007 C 152.70000000000005 384.30000000000007 173.60000000000005 355.20000000000005 173.60000000000005 322.50000000000006 C 173.6 280.5 139.5 246.4 97.4 246.4 L 97.4 246.4 z M 97.4 246.4" stroke-linecap="round" />
</g>
</g>
</g>
</svg>